<svg xmlns="http://www.w3.org/2000/svg" width="176" height="148" viewBox="5 7 44 37" shape-rendering="crispEdges">
  <title>Pixel art orange cat with sunglasses</title>
  <rect x="10" y="7" width="3" height="1" fill="#081428"/>
  <rect x="41" y="7" width="3" height="1" fill="#081428"/>
  <rect x="9" y="8" width="1" height="1" fill="#081428"/>
  <rect x="10" y="8" width="3" height="1" fill="#fdae4c"/>
  <rect x="13" y="8" width="1" height="1" fill="#081428"/>
  <rect x="40" y="8" width="1" height="1" fill="#081428"/>
  <rect x="41" y="8" width="3" height="1" fill="#fdae4c"/>
  <rect x="44" y="8" width="1" height="1" fill="#081428"/>
  <rect x="9" y="9" width="1" height="1" fill="#081428"/>
  <rect x="10" y="9" width="1" height="1" fill="#f08e37"/>
  <rect x="11" y="9" width="1" height="1" fill="#ec6d62"/>
  <rect x="12" y="9" width="2" height="1" fill="#fdae4c"/>
  <rect x="14" y="9" width="1" height="1" fill="#040f21"/>
  <rect x="15" y="9" width="1" height="1" fill="#081428"/>
  <rect x="39" y="9" width="1" height="1" fill="#081428"/>
  <rect x="40" y="9" width="2" height="1" fill="#fdae4c"/>
  <rect x="42" y="9" width="1" height="1" fill="#ec6d62"/>
  <rect x="43" y="9" width="1" height="1" fill="#f08e37"/>
  <rect x="44" y="9" width="1" height="1" fill="#081428"/>
  <rect x="9" y="10" width="1" height="1" fill="#081428"/>
  <rect x="10" y="10" width="1" height="1" fill="#faa342"/>
  <rect x="11" y="10" width="2" height="1" fill="#ec6d62"/>
  <rect x="13" y="10" width="3" height="1" fill="#fdae4c"/>
  <rect x="16" y="10" width="2" height="1" fill="#081428"/>
  <rect x="37" y="10" width="2" height="1" fill="#081428"/>
  <rect x="39" y="10" width="2" height="1" fill="#fdae4c"/>
  <rect x="41" y="10" width="2" height="1" fill="#ec6d62"/>
  <rect x="43" y="10" width="1" height="1" fill="#faa342"/>
  <rect x="44" y="10" width="1" height="1" fill="#081428"/>
  <rect x="9" y="11" width="1" height="1" fill="#081428"/>
  <rect x="10" y="11" width="1" height="1" fill="#faa342"/>
  <rect x="11" y="11" width="3" height="1" fill="#ec6d62"/>
  <rect x="14" y="11" width="4" height="1" fill="#fdae4c"/>
  <rect x="18" y="11" width="1" height="1" fill="#081428"/>
  <rect x="36" y="11" width="1" height="1" fill="#081428"/>
  <rect x="37" y="11" width="3" height="1" fill="#fdae4c"/>
  <rect x="40" y="11" width="3" height="1" fill="#ec6d62"/>
  <rect x="43" y="11" width="1" height="1" fill="#fdae4c"/>
  <rect x="44" y="11" width="1" height="1" fill="#081428"/>
  <rect x="9" y="12" width="1" height="1" fill="#081428"/>
  <rect x="10" y="12" width="1" height="1" fill="#faa342"/>
  <rect x="11" y="12" width="2" height="1" fill="#ec6d62"/>
  <rect x="13" y="12" width="2" height="1" fill="#fde8c0"/>
  <rect x="15" y="12" width="1" height="1" fill="#fcdaa0"/>
  <rect x="16" y="12" width="1" height="1" fill="#d3661c"/>
  <rect x="17" y="12" width="2" height="1" fill="#fdae4c"/>
  <rect x="19" y="12" width="1" height="1" fill="#081428"/>
  <rect x="23" y="12" width="9" height="1" fill="#081428"/>
  <rect x="35" y="12" width="1" height="1" fill="#081428"/>
  <rect x="36" y="12" width="2" height="1" fill="#fdae4c"/>
  <rect x="38" y="12" width="1" height="1" fill="#d3661c"/>
  <rect x="39" y="12" width="1" height="1" fill="#fcdaa0"/>
  <rect x="40" y="12" width="1" height="1" fill="#fde8c0"/>
  <rect x="41" y="12" width="2" height="1" fill="#ec6d62"/>
  <rect x="43" y="12" width="1" height="1" fill="#fdae4c"/>
  <rect x="44" y="12" width="1" height="1" fill="#081428"/>
  <rect x="9" y="13" width="1" height="1" fill="#081428"/>
  <rect x="10" y="13" width="1" height="1" fill="#faa342"/>
  <rect x="11" y="13" width="3" height="1" fill="#ec6d62"/>
  <rect x="14" y="13" width="3" height="1" fill="#fde8c0"/>
  <rect x="17" y="13" width="1" height="1" fill="#d3661c"/>
  <rect x="18" y="13" width="2" height="1" fill="#fdae4c"/>
  <rect x="20" y="13" width="3" height="1" fill="#081428"/>
  <rect x="23" y="13" width="3" height="1" fill="#fdae4c"/>
  <rect x="26" y="13" width="3" height="1" fill="#db6e1f"/>
  <rect x="29" y="13" width="3" height="1" fill="#fdae4c"/>
  <rect x="32" y="13" width="3" height="1" fill="#081428"/>
  <rect x="35" y="13" width="2" height="1" fill="#fdae4c"/>
  <rect x="37" y="13" width="1" height="1" fill="#d3661c"/>
  <rect x="38" y="13" width="2" height="1" fill="#fde8c0"/>
  <rect x="40" y="13" width="3" height="1" fill="#ec6d62"/>
  <rect x="43" y="13" width="1" height="1" fill="#fdae4c"/>
  <rect x="44" y="13" width="1" height="1" fill="#081428"/>
  <rect x="9" y="14" width="1" height="1" fill="#081428"/>
  <rect x="10" y="14" width="1" height="1" fill="#faa342"/>
  <rect x="11" y="14" width="3" height="1" fill="#ec6d62"/>
  <rect x="14" y="14" width="4" height="1" fill="#fde8c0"/>
  <rect x="18" y="14" width="1" height="1" fill="#d3661c"/>
  <rect x="19" y="14" width="3" height="1" fill="#fdae4c"/>
  <rect x="22" y="14" width="2" height="1" fill="#db6e1f"/>
  <rect x="24" y="14" width="2" height="1" fill="#fdae4c"/>
  <rect x="26" y="14" width="3" height="1" fill="#db6e1f"/>
  <rect x="29" y="14" width="2" height="1" fill="#fdae4c"/>
  <rect x="31" y="14" width="2" height="1" fill="#db6e1f"/>
  <rect x="33" y="14" width="3" height="1" fill="#fdae4c"/>
  <rect x="36" y="14" width="1" height="1" fill="#d3661c"/>
  <rect x="37" y="14" width="3" height="1" fill="#fde8c0"/>
  <rect x="40" y="14" width="3" height="1" fill="#ec6d62"/>
  <rect x="43" y="14" width="1" height="1" fill="#fdae4c"/>
  <rect x="44" y="14" width="1" height="1" fill="#081428"/>
  <rect x="10" y="15" width="1" height="1" fill="#081428"/>
  <rect x="11" y="15" width="2" height="1" fill="#ec6d62"/>
  <rect x="13" y="15" width="4" height="1" fill="#fde8c0"/>
  <rect x="17" y="15" width="2" height="1" fill="#d3661c"/>
  <rect x="19" y="15" width="3" height="1" fill="#fdae4c"/>
  <rect x="22" y="15" width="2" height="1" fill="#db6e1f"/>
  <rect x="24" y="15" width="2" height="1" fill="#fdae4c"/>
  <rect x="26" y="15" width="3" height="1" fill="#db6e1f"/>
  <rect x="29" y="15" width="2" height="1" fill="#fdae4c"/>
  <rect x="31" y="15" width="2" height="1" fill="#db6e1f"/>
  <rect x="33" y="15" width="3" height="1" fill="#fdae4c"/>
  <rect x="36" y="15" width="2" height="1" fill="#d3661c"/>
  <rect x="38" y="15" width="3" height="1" fill="#fde8c0"/>
  <rect x="41" y="15" width="2" height="1" fill="#ec6d62"/>
  <rect x="43" y="15" width="1" height="1" fill="#081428"/>
  <rect x="10" y="16" width="1" height="1" fill="#081428"/>
  <rect x="11" y="16" width="4" height="1" fill="#ec6d62"/>
  <rect x="15" y="16" width="2" height="1" fill="#d3661c"/>
  <rect x="17" y="16" width="6" height="1" fill="#fdae4c"/>
  <rect x="23" y="16" width="1" height="1" fill="#db6e1f"/>
  <rect x="24" y="16" width="3" height="1" fill="#fdae4c"/>
  <rect x="27" y="16" width="1" height="1" fill="#db6e1f"/>
  <rect x="28" y="16" width="3" height="1" fill="#fdae4c"/>
  <rect x="31" y="16" width="1" height="1" fill="#db6e1f"/>
  <rect x="32" y="16" width="6" height="1" fill="#fdae4c"/>
  <rect x="38" y="16" width="1" height="1" fill="#d3661c"/>
  <rect x="39" y="16" width="4" height="1" fill="#ec6d62"/>
  <rect x="43" y="16" width="1" height="1" fill="#081428"/>
  <rect x="10" y="17" width="1" height="1" fill="#081428"/>
  <rect x="11" y="17" width="3" height="1" fill="#ec6d62"/>
  <rect x="14" y="17" width="1" height="1" fill="#d3661c"/>
  <rect x="15" y="17" width="4" height="1" fill="#fdae4c"/>
  <rect x="19" y="17" width="2" height="1" fill="#db6e1f"/>
  <rect x="21" y="17" width="2" height="1" fill="#fdae4c"/>
  <rect x="23" y="17" width="2" height="1" fill="#db6e1f"/>
  <rect x="25" y="17" width="2" height="1" fill="#fdae4c"/>
  <rect x="27" y="17" width="1" height="1" fill="#db6e1f"/>
  <rect x="28" y="17" width="2" height="1" fill="#fdae4c"/>
  <rect x="30" y="17" width="2" height="1" fill="#db6e1f"/>
  <rect x="32" y="17" width="2" height="1" fill="#fdae4c"/>
  <rect x="34" y="17" width="2" height="1" fill="#db6e1f"/>
  <rect x="36" y="17" width="3" height="1" fill="#fdae4c"/>
  <rect x="39" y="17" width="1" height="1" fill="#d3661c"/>
  <rect x="40" y="17" width="3" height="1" fill="#ec6d62"/>
  <rect x="43" y="17" width="1" height="1" fill="#081428"/>
  <rect x="11" y="18" width="1" height="1" fill="#081428"/>
  <rect x="12" y="18" width="2" height="1" fill="#d3661c"/>
  <rect x="14" y="18" width="6" height="1" fill="#fdae4c"/>
  <rect x="20" y="18" width="1" height="1" fill="#db6e1f"/>
  <rect x="21" y="18" width="3" height="1" fill="#fdae4c"/>
  <rect x="24" y="18" width="1" height="1" fill="#db6e1f"/>
  <rect x="25" y="18" width="5" height="1" fill="#fdae4c"/>
  <rect x="30" y="18" width="1" height="1" fill="#db6e1f"/>
  <rect x="31" y="18" width="3" height="1" fill="#fdae4c"/>
  <rect x="34" y="18" width="1" height="1" fill="#db6e1f"/>
  <rect x="35" y="18" width="5" height="1" fill="#fdae4c"/>
  <rect x="40" y="18" width="2" height="1" fill="#d3661c"/>
  <rect x="42" y="18" width="1" height="1" fill="#081428"/>
  <rect x="11" y="19" width="1" height="1" fill="#081428"/>
  <rect x="12" y="19" width="1" height="1" fill="#d3661c"/>
  <rect x="13" y="19" width="1" height="1" fill="#faa342"/>
  <rect x="14" y="19" width="4" height="1" fill="#fdae4c"/>
  <rect x="18" y="19" width="1" height="1" fill="#fcca84"/>
  <rect x="19" y="19" width="2" height="1" fill="#fde8c0"/>
  <rect x="21" y="19" width="1" height="1" fill="#db6e1f"/>
  <rect x="22" y="19" width="11" height="1" fill="#fdae4c"/>
  <rect x="33" y="19" width="1" height="1" fill="#db6e1f"/>
  <rect x="34" y="19" width="2" height="1" fill="#fde8c0"/>
  <rect x="36" y="19" width="1" height="1" fill="#fcca84"/>
  <rect x="37" y="19" width="3" height="1" fill="#fdae4c"/>
  <rect x="40" y="19" width="1" height="1" fill="#faa342"/>
  <rect x="41" y="19" width="1" height="1" fill="#d3661c"/>
  <rect x="42" y="19" width="1" height="1" fill="#081428"/>
  <rect x="10" y="20" width="2" height="1" fill="#040f21"/>
  <rect x="12" y="20" width="13" height="1" fill="#010c1c"/>
  <rect x="25" y="20" width="5" height="1" fill="#fdae4c"/>
  <rect x="30" y="20" width="12" height="1" fill="#010c1c"/>
  <rect x="42" y="20" width="2" height="1" fill="#040f21"/>
  <rect x="10" y="21" width="1" height="1" fill="#040f21"/>
  <rect x="11" y="21" width="1" height="1" fill="#c7b79b"/>
  <rect x="12" y="21" width="2" height="1" fill="#373f44"/>
  <rect x="14" y="21" width="7" height="1" fill="#454c4e"/>
  <rect x="21" y="21" width="3" height="1" fill="#373f44"/>
  <rect x="24" y="21" width="1" height="1" fill="#454c4e"/>
  <rect x="25" y="21" width="1" height="1" fill="#040f21"/>
  <rect x="26" y="21" width="3" height="1" fill="#fdae4c"/>
  <rect x="29" y="21" width="1" height="1" fill="#010c1c"/>
  <rect x="30" y="21" width="8" height="1" fill="#454c4e"/>
  <rect x="38" y="21" width="4" height="1" fill="#373f44"/>
  <rect x="42" y="21" width="1" height="1" fill="#c7b79b"/>
  <rect x="43" y="21" width="1" height="1" fill="#040f21"/>
  <rect x="10" y="22" width="1" height="1" fill="#040f21"/>
  <rect x="11" y="22" width="2" height="1" fill="#373f44"/>
  <rect x="13" y="22" width="1" height="1" fill="#262d35"/>
  <rect x="14" y="22" width="10" height="1" fill="#010c1c"/>
  <rect x="24" y="22" width="1" height="1" fill="#373f44"/>
  <rect x="25" y="22" width="4" height="1" fill="#010c1c"/>
  <rect x="29" y="22" width="2" height="1" fill="#373f44"/>
  <rect x="31" y="22" width="9" height="1" fill="#010c1c"/>
  <rect x="40" y="22" width="3" height="1" fill="#373f44"/>
  <rect x="43" y="22" width="1" height="1" fill="#040f21"/>
  <rect x="10" y="23" width="2" height="1" fill="#040f21"/>
  <rect x="12" y="23" width="1" height="1" fill="#373f44"/>
  <rect x="13" y="23" width="1" height="1" fill="#010c1c"/>
  <rect x="14" y="23" width="1" height="1" fill="#040f21"/>
  <rect x="15" y="23" width="1" height="1" fill="#0e1627"/>
  <rect x="16" y="23" width="2" height="1" fill="#ffffff"/>
  <rect x="18" y="23" width="6" height="1" fill="#0e1627"/>
  <rect x="24" y="23" width="1" height="1" fill="#010c1c"/>
  <rect x="25" y="23" width="1" height="1" fill="#373f44"/>
  <rect x="26" y="23" width="3" height="1" fill="#454c4e"/>
  <rect x="29" y="23" width="1" height="1" fill="#373f44"/>
  <rect x="30" y="23" width="2" height="1" fill="#010c1c"/>
  <rect x="32" y="23" width="2" height="1" fill="#0e1627"/>
  <rect x="34" y="23" width="2" height="1" fill="#ffffff"/>
  <rect x="36" y="23" width="4" height="1" fill="#0e1627"/>
  <rect x="40" y="23" width="1" height="1" fill="#010c1c"/>
  <rect x="41" y="23" width="1" height="1" fill="#373f44"/>
  <rect x="42" y="23" width="2" height="1" fill="#040f21"/>
  <rect x="10" y="24" width="1" height="1" fill="#081428"/>
  <rect x="11" y="24" width="1" height="1" fill="#040f21"/>
  <rect x="12" y="24" width="1" height="1" fill="#373f44"/>
  <rect x="13" y="24" width="1" height="1" fill="#010c1c"/>
  <rect x="14" y="24" width="1" height="1" fill="#0e1627"/>
  <rect x="15" y="24" width="2" height="1" fill="#ffffff"/>
  <rect x="17" y="24" width="7" height="1" fill="#0e1627"/>
  <rect x="24" y="24" width="1" height="1" fill="#010c1c"/>
  <rect x="25" y="24" width="1" height="1" fill="#373f44"/>
  <rect x="26" y="24" width="3" height="1" fill="#081428"/>
  <rect x="29" y="24" width="1" height="1" fill="#373f44"/>
  <rect x="30" y="24" width="1" height="1" fill="#010c1c"/>
  <rect x="31" y="24" width="2" height="1" fill="#0e1627"/>
  <rect x="33" y="24" width="2" height="1" fill="#ffffff"/>
  <rect x="35" y="24" width="5" height="1" fill="#0e1627"/>
  <rect x="40" y="24" width="1" height="1" fill="#040f21"/>
  <rect x="41" y="24" width="1" height="1" fill="#373f44"/>
  <rect x="42" y="24" width="1" height="1" fill="#040f21"/>
  <rect x="43" y="24" width="1" height="1" fill="#081428"/>
  <rect x="10" y="25" width="1" height="1" fill="#081428"/>
  <rect x="11" y="25" width="1" height="1" fill="#040f21"/>
  <rect x="12" y="25" width="1" height="1" fill="#373f44"/>
  <rect x="13" y="25" width="1" height="1" fill="#010c1c"/>
  <rect x="14" y="25" width="1" height="1" fill="#0e1627"/>
  <rect x="15" y="25" width="1" height="1" fill="#ffffff"/>
  <rect x="16" y="25" width="8" height="1" fill="#0e1627"/>
  <rect x="24" y="25" width="1" height="1" fill="#010c1c"/>
  <rect x="25" y="25" width="1" height="1" fill="#373f44"/>
  <rect x="26" y="25" width="1" height="1" fill="#010c1c"/>
  <rect x="27" y="25" width="1" height="1" fill="#e47925"/>
  <rect x="28" y="25" width="1" height="1" fill="#010c1c"/>
  <rect x="29" y="25" width="1" height="1" fill="#373f44"/>
  <rect x="30" y="25" width="1" height="1" fill="#010c1c"/>
  <rect x="31" y="25" width="2" height="1" fill="#0e1627"/>
  <rect x="33" y="25" width="1" height="1" fill="#ffffff"/>
  <rect x="34" y="25" width="6" height="1" fill="#0e1627"/>
  <rect x="40" y="25" width="1" height="1" fill="#010c1c"/>
  <rect x="41" y="25" width="1" height="1" fill="#373f44"/>
  <rect x="42" y="25" width="1" height="1" fill="#040f21"/>
  <rect x="43" y="25" width="1" height="1" fill="#081428"/>
  <rect x="9" y="26" width="1" height="1" fill="#081428"/>
  <rect x="10" y="26" width="1" height="1" fill="#f08e37"/>
  <rect x="11" y="26" width="1" height="1" fill="#040f21"/>
  <rect x="12" y="26" width="1" height="1" fill="#373f44"/>
  <rect x="13" y="26" width="1" height="1" fill="#010c1c"/>
  <rect x="14" y="26" width="10" height="1" fill="#0e1627"/>
  <rect x="24" y="26" width="1" height="1" fill="#373f44"/>
  <rect x="25" y="26" width="1" height="1" fill="#010c1c"/>
  <rect x="26" y="26" width="3" height="1" fill="#fdae4c"/>
  <rect x="29" y="26" width="1" height="1" fill="#010c1c"/>
  <rect x="30" y="26" width="1" height="1" fill="#373f44"/>
  <rect x="31" y="26" width="9" height="1" fill="#0e1627"/>
  <rect x="40" y="26" width="1" height="1" fill="#010c1c"/>
  <rect x="41" y="26" width="1" height="1" fill="#373f44"/>
  <rect x="42" y="26" width="1" height="1" fill="#010c1c"/>
  <rect x="43" y="26" width="1" height="1" fill="#f08e37"/>
  <rect x="44" y="26" width="1" height="1" fill="#081428"/>
  <rect x="9" y="27" width="1" height="1" fill="#081428"/>
  <rect x="10" y="27" width="1" height="1" fill="#faa342"/>
  <rect x="11" y="27" width="2" height="1" fill="#040f21"/>
  <rect x="13" y="27" width="1" height="1" fill="#373f44"/>
  <rect x="14" y="27" width="2" height="1" fill="#010c1c"/>
  <rect x="16" y="27" width="6" height="1" fill="#0e1627"/>
  <rect x="22" y="27" width="1" height="1" fill="#040f21"/>
  <rect x="23" y="27" width="1" height="1" fill="#373f44"/>
  <rect x="24" y="27" width="1" height="1" fill="#010c1c"/>
  <rect x="25" y="27" width="2" height="1" fill="#fcdaa0"/>
  <rect x="27" y="27" width="2" height="1" fill="#fde8c0"/>
  <rect x="29" y="27" width="1" height="1" fill="#fcdaa0"/>
  <rect x="30" y="27" width="1" height="1" fill="#010c1c"/>
  <rect x="31" y="27" width="1" height="1" fill="#373f44"/>
  <rect x="32" y="27" width="1" height="1" fill="#010c1c"/>
  <rect x="33" y="27" width="6" height="1" fill="#0e1627"/>
  <rect x="39" y="27" width="1" height="1" fill="#010c1c"/>
  <rect x="40" y="27" width="1" height="1" fill="#373f44"/>
  <rect x="41" y="27" width="2" height="1" fill="#040f21"/>
  <rect x="43" y="27" width="1" height="1" fill="#faa342"/>
  <rect x="44" y="27" width="1" height="1" fill="#081428"/>
  <rect x="6" y="28" width="4" height="1" fill="#fde8c0"/>
  <rect x="10" y="28" width="2" height="1" fill="#fcdaa0"/>
  <rect x="12" y="28" width="1" height="1" fill="#040f21"/>
  <rect x="13" y="28" width="1" height="1" fill="#010c1c"/>
  <rect x="14" y="28" width="1" height="1" fill="#373f44"/>
  <rect x="15" y="28" width="7" height="1" fill="#010c1c"/>
  <rect x="22" y="28" width="1" height="1" fill="#373f44"/>
  <rect x="23" y="28" width="1" height="1" fill="#010c1c"/>
  <rect x="24" y="28" width="1" height="1" fill="#fde8c0"/>
  <rect x="25" y="28" width="5" height="1" fill="#ec6d62"/>
  <rect x="30" y="28" width="1" height="1" fill="#fde8c0"/>
  <rect x="31" y="28" width="1" height="1" fill="#010c1c"/>
  <rect x="32" y="28" width="1" height="1" fill="#373f44"/>
  <rect x="33" y="28" width="6" height="1" fill="#010c1c"/>
  <rect x="39" y="28" width="1" height="1" fill="#373f44"/>
  <rect x="40" y="28" width="2" height="1" fill="#040f21"/>
  <rect x="42" y="28" width="2" height="1" fill="#fcdaa0"/>
  <rect x="44" y="28" width="4" height="1" fill="#fde8c0"/>
  <rect x="5" y="29" width="1" height="1" fill="#fde8c0"/>
  <rect x="9" y="29" width="1" height="1" fill="#081428"/>
  <rect x="10" y="29" width="1" height="1" fill="#e47925"/>
  <rect x="11" y="29" width="2" height="1" fill="#faa342"/>
  <rect x="13" y="29" width="1" height="1" fill="#cc8b42"/>
  <rect x="14" y="29" width="1" height="1" fill="#010c1c"/>
  <rect x="15" y="29" width="7" height="1" fill="#373f44"/>
  <rect x="22" y="29" width="1" height="1" fill="#010c1c"/>
  <rect x="23" y="29" width="3" height="1" fill="#fde8c0"/>
  <rect x="26" y="29" width="1" height="1" fill="#3a1017"/>
  <rect x="27" y="29" width="1" height="1" fill="#ec6d62"/>
  <rect x="28" y="29" width="1" height="1" fill="#3a1017"/>
  <rect x="29" y="29" width="3" height="1" fill="#fde8c0"/>
  <rect x="32" y="29" width="1" height="1" fill="#010c1c"/>
  <rect x="33" y="29" width="6" height="1" fill="#373f44"/>
  <rect x="39" y="29" width="1" height="1" fill="#010c1c"/>
  <rect x="40" y="29" width="1" height="1" fill="#cc8b42"/>
  <rect x="41" y="29" width="2" height="1" fill="#faa342"/>
  <rect x="43" y="29" width="1" height="1" fill="#e47925"/>
  <rect x="44" y="29" width="1" height="1" fill="#081428"/>
  <rect x="48" y="29" width="1" height="1" fill="#fde8c0"/>
  <rect x="9" y="30" width="1" height="1" fill="#081428"/>
  <rect x="10" y="30" width="1" height="1" fill="#ad531d"/>
  <rect x="11" y="30" width="1" height="1" fill="#fde8c0"/>
  <rect x="12" y="30" width="1" height="1" fill="#fcca84"/>
  <rect x="13" y="30" width="2" height="1" fill="#fde8c0"/>
  <rect x="15" y="30" width="7" height="1" fill="#010c1c"/>
  <rect x="22" y="30" width="5" height="1" fill="#fde8c0"/>
  <rect x="27" y="30" width="1" height="1" fill="#3a1017"/>
  <rect x="28" y="30" width="5" height="1" fill="#fde8c0"/>
  <rect x="33" y="30" width="7" height="1" fill="#010c1c"/>
  <rect x="40" y="30" width="2" height="1" fill="#fde8c0"/>
  <rect x="42" y="30" width="1" height="1" fill="#fcca84"/>
  <rect x="43" y="30" width="1" height="1" fill="#fde8c0"/>
  <rect x="44" y="30" width="1" height="1" fill="#081428"/>
  <rect x="9" y="31" width="1" height="1" fill="#081428"/>
  <rect x="10" y="31" width="1" height="1" fill="#fde8c0"/>
  <rect x="11" y="31" width="4" height="1" fill="#db6e1f"/>
  <rect x="15" y="31" width="3" height="1" fill="#e47925"/>
  <rect x="18" y="31" width="9" height="1" fill="#fde8c0"/>
  <rect x="27" y="31" width="1" height="1" fill="#280e13"/>
  <rect x="28" y="31" width="9" height="1" fill="#fde8c0"/>
  <rect x="37" y="31" width="2" height="1" fill="#e47925"/>
  <rect x="39" y="31" width="4" height="1" fill="#db6e1f"/>
  <rect x="43" y="31" width="1" height="1" fill="#081428"/>
  <rect x="44" y="31" width="2" height="1" fill="#fde8c0"/>
  <rect x="8" y="32" width="2" height="1" fill="#fde8c0"/>
  <rect x="10" y="32" width="1" height="1" fill="#081428"/>
  <rect x="11" y="32" width="4" height="1" fill="#db6e1f"/>
  <rect x="15" y="32" width="6" height="1" fill="#fde8c0"/>
  <rect x="21" y="32" width="1" height="1" fill="#280e13"/>
  <rect x="22" y="32" width="4" height="1" fill="#fde8c0"/>
  <rect x="26" y="32" width="3" height="1" fill="#280e13"/>
  <rect x="29" y="32" width="4" height="1" fill="#fde8c0"/>
  <rect x="33" y="32" width="1" height="1" fill="#280e13"/>
  <rect x="34" y="32" width="5" height="1" fill="#fde8c0"/>
  <rect x="39" y="32" width="4" height="1" fill="#db6e1f"/>
  <rect x="43" y="32" width="1" height="1" fill="#081428"/>
  <rect x="46" y="32" width="1" height="1" fill="#fde8c0"/>
  <rect x="7" y="33" width="1" height="1" fill="#fde8c0"/>
  <rect x="10" y="33" width="1" height="1" fill="#081428"/>
  <rect x="11" y="33" width="2" height="1" fill="#db6e1f"/>
  <rect x="13" y="33" width="2" height="1" fill="#fde8c0"/>
  <rect x="15" y="33" width="1" height="1" fill="#db6e1f"/>
  <rect x="16" y="33" width="1" height="1" fill="#e47925"/>
  <rect x="17" y="33" width="1" height="1" fill="#fcdaa0"/>
  <rect x="18" y="33" width="4" height="1" fill="#fde8c0"/>
  <rect x="22" y="33" width="4" height="1" fill="#280e13"/>
  <rect x="26" y="33" width="3" height="1" fill="#3a1017"/>
  <rect x="29" y="33" width="4" height="1" fill="#280e13"/>
  <rect x="33" y="33" width="4" height="1" fill="#fde8c0"/>
  <rect x="37" y="33" width="1" height="1" fill="#fcca84"/>
  <rect x="38" y="33" width="1" height="1" fill="#db6e1f"/>
  <rect x="39" y="33" width="2" height="1" fill="#fde8c0"/>
  <rect x="41" y="33" width="2" height="1" fill="#db6e1f"/>
  <rect x="43" y="33" width="1" height="1" fill="#081428"/>
  <rect x="47" y="33" width="1" height="1" fill="#fde8c0"/>
  <rect x="6" y="34" width="1" height="1" fill="#fde8c0"/>
  <rect x="10" y="34" width="1" height="1" fill="#081428"/>
  <rect x="11" y="34" width="2" height="1" fill="#fde8c0"/>
  <rect x="13" y="34" width="2" height="1" fill="#db6e1f"/>
  <rect x="15" y="34" width="1" height="1" fill="#faa342"/>
  <rect x="16" y="34" width="1" height="1" fill="#fcdaa0"/>
  <rect x="17" y="34" width="6" height="1" fill="#fde8c0"/>
  <rect x="23" y="34" width="1" height="1" fill="#3a1017"/>
  <rect x="24" y="34" width="1" height="1" fill="#fde8c0"/>
  <rect x="25" y="34" width="5" height="1" fill="#3a1017"/>
  <rect x="30" y="34" width="1" height="1" fill="#fde8c0"/>
  <rect x="31" y="34" width="1" height="1" fill="#3a1017"/>
  <rect x="32" y="34" width="6" height="1" fill="#fde8c0"/>
  <rect x="38" y="34" width="1" height="1" fill="#fcdaa0"/>
  <rect x="39" y="34" width="2" height="1" fill="#db6e1f"/>
  <rect x="41" y="34" width="2" height="1" fill="#fde8c0"/>
  <rect x="43" y="34" width="1" height="1" fill="#081428"/>
  <rect x="10" y="35" width="1" height="1" fill="#fde8c0"/>
  <rect x="11" y="35" width="1" height="1" fill="#fdae4c"/>
  <rect x="12" y="35" width="2" height="1" fill="#db6e1f"/>
  <rect x="14" y="35" width="1" height="1" fill="#faa342"/>
  <rect x="15" y="35" width="1" height="1" fill="#fcca84"/>
  <rect x="16" y="35" width="7" height="1" fill="#fde8c0"/>
  <rect x="23" y="35" width="1" height="1" fill="#3a1017"/>
  <rect x="24" y="35" width="1" height="1" fill="#fde8c0"/>
  <rect x="25" y="35" width="5" height="1" fill="#3a1017"/>
  <rect x="30" y="35" width="1" height="1" fill="#fde8c0"/>
  <rect x="31" y="35" width="1" height="1" fill="#3a1017"/>
  <rect x="32" y="35" width="7" height="1" fill="#fde8c0"/>
  <rect x="39" y="35" width="1" height="1" fill="#faa342"/>
  <rect x="40" y="35" width="2" height="1" fill="#db6e1f"/>
  <rect x="42" y="35" width="1" height="1" fill="#fdae4c"/>
  <rect x="43" y="35" width="1" height="1" fill="#fde8c0"/>
  <rect x="9" y="36" width="1" height="1" fill="#fde8c0" opacity="0.996"/>
  <rect x="11" y="36" width="1" height="1" fill="#081428"/>
  <rect x="12" y="36" width="1" height="1" fill="#db6e1f"/>
  <rect x="13" y="36" width="1" height="1" fill="#faa342"/>
  <rect x="14" y="36" width="1" height="1" fill="#fdae4c"/>
  <rect x="15" y="36" width="1" height="1" fill="#fcdaa0"/>
  <rect x="16" y="36" width="7" height="1" fill="#fde8c0"/>
  <rect x="23" y="36" width="9" height="1" fill="#3a1017"/>
  <rect x="32" y="36" width="7" height="1" fill="#fde8c0"/>
  <rect x="39" y="36" width="1" height="1" fill="#faa342"/>
  <rect x="40" y="36" width="1" height="1" fill="#f08e37"/>
  <rect x="41" y="36" width="1" height="1" fill="#db6e1f"/>
  <rect x="42" y="36" width="1" height="1" fill="#081428"/>
  <rect x="44" y="36" width="1" height="1" fill="#fde8c0"/>
  <rect x="8" y="37" width="1" height="1" fill="#fde8c0"/>
  <rect x="12" y="37" width="1" height="1" fill="#081428"/>
  <rect x="13" y="37" width="1" height="1" fill="#f08e37"/>
  <rect x="14" y="37" width="1" height="1" fill="#fdae4c"/>
  <rect x="15" y="37" width="1" height="1" fill="#fcdaa0"/>
  <rect x="16" y="37" width="7" height="1" fill="#fde8c0"/>
  <rect x="23" y="37" width="3" height="1" fill="#3a1017"/>
  <rect x="26" y="37" width="3" height="1" fill="#d04c4e"/>
  <rect x="29" y="37" width="3" height="1" fill="#3a1017"/>
  <rect x="32" y="37" width="7" height="1" fill="#fde8c0"/>
  <rect x="39" y="37" width="1" height="1" fill="#fdae4c"/>
  <rect x="40" y="37" width="1" height="1" fill="#f08e37"/>
  <rect x="41" y="37" width="1" height="1" fill="#081428"/>
  <rect x="45" y="37" width="1" height="1" fill="#fde8c0"/>
  <rect x="12" y="38" width="1" height="1" fill="#081428"/>
  <rect x="13" y="38" width="2" height="1" fill="#db6e1f"/>
  <rect x="15" y="38" width="1" height="1" fill="#f08e37"/>
  <rect x="16" y="38" width="1" height="1" fill="#fcdaa0"/>
  <rect x="17" y="38" width="7" height="1" fill="#fde8c0"/>
  <rect x="24" y="38" width="1" height="1" fill="#3a1017"/>
  <rect x="25" y="38" width="5" height="1" fill="#ec6d62"/>
  <rect x="30" y="38" width="1" height="1" fill="#3a1017"/>
  <rect x="31" y="38" width="7" height="1" fill="#fde8c0"/>
  <rect x="38" y="38" width="1" height="1" fill="#fcdaa0"/>
  <rect x="39" y="38" width="1" height="1" fill="#f08e37"/>
  <rect x="40" y="38" width="1" height="1" fill="#d3661c"/>
  <rect x="41" y="38" width="1" height="1" fill="#081428"/>
  <rect x="14" y="39" width="1" height="1" fill="#081428"/>
  <rect x="15" y="39" width="1" height="1" fill="#db6e1f"/>
  <rect x="16" y="39" width="1" height="1" fill="#f08e37"/>
  <rect x="17" y="39" width="1" height="1" fill="#fdae4c"/>
  <rect x="18" y="39" width="7" height="1" fill="#fde8c0"/>
  <rect x="25" y="39" width="1" height="1" fill="#3a1017"/>
  <rect x="26" y="39" width="3" height="1" fill="#ec6d62"/>
  <rect x="29" y="39" width="1" height="1" fill="#3a1017"/>
  <rect x="30" y="39" width="7" height="1" fill="#fde8c0"/>
  <rect x="37" y="39" width="1" height="1" fill="#fdae4c"/>
  <rect x="38" y="39" width="1" height="1" fill="#f08e37"/>
  <rect x="39" y="39" width="1" height="1" fill="#081428"/>
  <rect x="15" y="40" width="2" height="1" fill="#081428"/>
  <rect x="17" y="40" width="1" height="1" fill="#f08e37"/>
  <rect x="18" y="40" width="1" height="1" fill="#fcca84"/>
  <rect x="19" y="40" width="7" height="1" fill="#fde8c0"/>
  <rect x="26" y="40" width="3" height="1" fill="#3a1017"/>
  <rect x="29" y="40" width="7" height="1" fill="#fde8c0"/>
  <rect x="36" y="40" width="1" height="1" fill="#fcca84"/>
  <rect x="37" y="40" width="1" height="1" fill="#f08e37"/>
  <rect x="38" y="40" width="1" height="1" fill="#081428"/>
  <rect x="17" y="41" width="1" height="1" fill="#081428"/>
  <rect x="18" y="41" width="1" height="1" fill="#faa342"/>
  <rect x="19" y="41" width="2" height="1" fill="#fdae4c"/>
  <rect x="21" y="41" width="13" height="1" fill="#fde8c0"/>
  <rect x="34" y="41" width="2" height="1" fill="#fdae4c"/>
  <rect x="36" y="41" width="1" height="1" fill="#faa342"/>
  <rect x="37" y="41" width="1" height="1" fill="#081428"/>
  <rect x="18" y="42" width="2" height="1" fill="#081428"/>
  <rect x="20" y="42" width="1" height="1" fill="#f08e37"/>
  <rect x="21" y="42" width="3" height="1" fill="#fdae4c"/>
  <rect x="24" y="42" width="7" height="1" fill="#fde8c0"/>
  <rect x="31" y="42" width="3" height="1" fill="#fdae4c"/>
  <rect x="34" y="42" width="1" height="1" fill="#f08e37"/>
  <rect x="35" y="42" width="2" height="1" fill="#081428"/>
  <rect x="20" y="43" width="4" height="1" fill="#081428"/>
  <rect x="24" y="43" width="7" height="1" fill="#fdae4c"/>
  <rect x="31" y="43" width="4" height="1" fill="#081428"/>
</svg>